<?xml version="1.0" ?>
<!-- Uploaded to: SVG Repo, www.svgrepo.com, Generator: SVG Repo Mixer Tools -->
<svg width="800px" height="800px" viewBox="0 0 64 64" xmlns="http://www.w3.org/2000/svg">
<defs>
<style>.cls-1{fill:#b3b3b3;}.cls-2{fill:#ccc;}.cls-3{fill:#8b8b8b;}.cls-4{fill:#bababa;}.cls-5{fill:#1f1c1c;}.cls-6{fill:#5d4d37;}.cls-7{fill:#7c6749;}.cls-8{fill:#a58961;}.cls-9{fill:none;stroke:#000000;stroke-linejoin:round;stroke-width:2px;}</style>
</defs>
<title/>
<g data-name="Layer 5" id="Layer_5">
<circle class="cls-1" cx="32" cy="32" r="30"/>
<circle class="cls-2" cx="32" cy="32" r="26"/>
<rect class="cls-3" height="4" width="60" x="2" y="38"/>
<rect class="cls-4" height="4" width="56" x="2" y="38"/>
<rect class="cls-3" height="20" width="50" x="7" y="42"/>
<rect class="cls-5" height="12" width="6" x="51" y="46"/>
<rect class="cls-5" height="12" width="6" x="7" y="46"/>
<path class="cls-6" d="M8,22H56a4,4,0,0,1,4,4v0a0,0,0,0,1,0,0H4a0,0,0,0,1,0,0v0A4,4,0,0,1,8,22Z"/>
<path class="cls-7" d="M52,22H8a4,4,0,0,0-4,4H56A4,4,0,0,0,52,22Z"/>
<polygon class="cls-7" points="60 30 60 38 4 38 4 30 8 26 56 26 60 30"/>
<polygon class="cls-8" points="52 26 8 26 4 30 4 38 56 38 56 30 52 26"/>
<rect class="cls-9" height="20" width="50" x="7" y="42"/>
<rect class="cls-9" height="4" width="60" x="2" y="38"/>
<polygon class="cls-9" points="60 30 60 38 4 38 4 30 8 26 56 26 60 30"/>
<path class="cls-9" d="M8,22H56a4,4,0,0,1,4,4v0a0,0,0,0,1,0,0H4a0,0,0,0,1,0,0v0A4,4,0,0,1,8,22Z"/>
<line class="cls-9" x1="32" x2="32" y1="45" y2="59"/>
<line class="cls-9" x1="27" x2="37" y1="50" y2="50"/>
<path class="cls-9" d="M25.29,58A9,9,0,0,1,26,45.29"/>
<path class="cls-9" d="M38,45.29A9,9,0,0,1,38.71,58"/>
<rect class="cls-9" height="12" width="6" x="7" y="46"/>
<rect class="cls-9" height="12" width="6" x="51" y="46"/>
<line class="cls-9" x1="55" x2="45" y1="34" y2="34"/>
<line class="cls-9" x1="43" x2="41" y1="34" y2="34"/>
<path class="cls-9" d="M5,19A30,30,0,0,1,59,19"/>
<path class="cls-9" d="M10,18.14A26,26,0,0,1,53.91,18"/>
</g>
</svg>