<?xml version="1.0" encoding="iso-8859-1"?>
<!-- Uploaded to: SVG Repo, www.svgrepo.com, Generator: SVG Repo Mixer Tools -->
<svg fill="#000000" height="800px" width="800px" version="1.1" id="Layer_1" xmlns="http://www.w3.org/2000/svg" xmlns:xlink="http://www.w3.org/1999/xlink" 
	 viewBox="0 0 512 512" xml:space="preserve">
<g>
	<g>
		<path d="M501.801,375.614h-35.889V344.82c0-5.632-4.567-10.199-10.199-10.199h-30.161V220.056h58.539
			c5.632,0,10.199-4.567,10.199-10.199v-65.385c0-5.632-4.567-10.199-10.199-10.199h-58.539V75.733
			c0-5.632-4.567-10.199-10.199-10.199h-65.385c-5.632,0-10.199,4.567-10.199,10.199v58.539h-58.539
			c-5.632,0-10.199,4.567-10.199,10.199v65.385c0,5.632,4.567,10.199,10.199,10.199h58.539v114.565H172.232V220.056h58.539
			c5.632,0,10.199-4.567,10.199-10.199v-65.385c0-5.632-4.567-10.199-10.199-10.199h-58.539V75.733
			c0-5.632-4.567-10.199-10.199-10.199H96.648c-5.632,0-10.199,4.567-10.199,10.199v58.539h-58.54
			c-5.632,0-10.199,4.567-10.199,10.199v65.385c0,5.632,4.567,10.199,10.199,10.199h58.54v114.565H56.287
			c-5.632,0-10.199,4.567-10.199,10.199v30.794H10.199C4.567,375.614,0,380.181,0,385.813v50.453
			c0,5.632,4.567,10.199,10.199,10.199h491.602c5.632,0,10.199-4.567,10.199-10.199v-50.453
			C512,380.181,507.433,375.614,501.801,375.614z M291.428,199.658v-44.987h58.539c5.632,0,10.199-4.567,10.199-10.199V85.932
			h44.987v58.539c0,5.632,4.567,10.199,10.199,10.199h58.539v44.987h-58.539c-5.632,0-10.199,4.567-10.199,10.199v124.764h-44.987
			V209.857c0-5.633-4.567-10.199-10.199-10.199H291.428z M38.107,199.658v-44.987h58.54c5.632,0,10.199-4.567,10.199-10.199V85.932
			h44.987v58.539c0,5.632,4.567,10.199,10.199,10.199h58.539v44.987h-58.539c-5.632,0-10.199,4.567-10.199,10.199v124.764h-44.987
			V209.857c0-5.633-4.567-10.199-10.199-10.199H38.107z M66.487,355.019h379.028v20.595H66.487V355.019z M491.602,426.068H20.398
			v-30.055h471.203V426.068z"/>
	</g>
</g>
<g>
	<g>
		<path d="M199.239,166.441h-59.175v-59.176c0-5.632-4.567-10.199-10.199-10.199c-5.632,0-10.199,4.567-10.199,10.199v59.176H60.491
			c-5.632,0-10.199,4.567-10.199,10.199s4.567,10.199,10.199,10.199h59.176v126.447h-0.001c0,5.632,4.567,10.199,10.199,10.199
			c5.632,0,10.199-4.567,10.199-10.199V186.839h59.175c5.632,0,10.199-4.567,10.199-10.199S204.871,166.441,199.239,166.441z"/>
	</g>
</g>
<g>
	<g>
		<path d="M452.56,166.441h-6.307c-5.632,0-10.199,4.567-10.199,10.199s4.567,10.199,10.199,10.199h6.307
			c5.632,0,10.199-4.567,10.199-10.199S458.192,166.441,452.56,166.441z"/>
	</g>
</g>
<g>
	<g>
		<path d="M411.566,166.441h-18.182v-59.176c0-5.632-4.567-10.199-10.199-10.199c-5.632,0-10.199,4.567-10.199,10.199v59.176
			h-59.175c-5.632,0-10.199,4.567-10.199,10.199s4.567,10.199,10.199,10.199h59.175v126.447c0,5.632,4.567,10.199,10.199,10.199
			c5.632,0,10.199-4.567,10.199-10.199V186.839h18.182c5.632,0,10.199-4.567,10.199-10.199S417.198,166.441,411.566,166.441z"/>
	</g>
</g>
</svg>